<svg width="36" height="36" viewBox="0 0 36 36" fill="none" xmlns="http://www.w3.org/2000/svg">
<path fill-rule="evenodd" clip-rule="evenodd" d="M4 10V6C4 4.9 4.9 4 6 4H10V6H6V10H4ZM4 26H6V30H10V32H6C4.9 32 4 31.1 4 30V26ZM30 30H26V32H30C31.1 32 32 31.1 32 30V26H30V30ZM26 4H30C31.1 4 32 4.9 32 6V10H30V6H26V4ZM13.2 30H16.4V32H13.2V30ZM22.8 30H19.6V32H22.8V30ZM4 13.2H6V16.4H4V13.2ZM6 19.6H4V22.8H6V19.6ZM13.2 4H16.4V6H13.2V4ZM22.8 4H19.6V6H22.8V4ZM30 13.2H32V16.4H30V13.2ZM32 19.6H30V22.8H32V19.6Z" fill="black" fill-opacity="0.54"/>
</svg>
