<svg width="36" height="36" viewBox="0 0 36 36" fill="none" xmlns="http://www.w3.org/2000/svg">
<path fill-rule="evenodd" clip-rule="evenodd" d="M6 12V8C6 6.9 6.9 6 8 6H12V8H8V12H6ZM6 24H8V28H12V30H8C6.9 30 6 29.1 6 28V24ZM28 28H24V30H28C29.1 30 30 29.1 30 28V24H28V28ZM24 6H28C29.1 6 30 6.9 30 8V12H28V8H24V6ZM14.4 28H16.8V30H14.4V28ZM21.6 28H19.2V30H21.6V28ZM14.4 6H16.8V8H14.4V6ZM21.6 6H19.2V8H21.6V6ZM6 14.4H8V16.8H6V14.4ZM8 19.2H6V21.6H8V19.2ZM28 14.4H30V16.8H28V14.4ZM30 19.2H28V21.6H30V19.2Z" fill="black" fill-opacity="0.54"/>
</svg>
