<svg width="24" height="24" viewBox="0 0 24 24" fill="none" xmlns="http://www.w3.org/2000/svg">
<g clip-path="url(#clip0_15641:8)">
<path d="M16.9411 11.7647C16.9411 8.90356 14.6258 6.58826 11.7646 6.58826C8.90342 6.58826 6.58813 8.90356 6.58813 11.7647C6.58813 14.3059 8.41401 16.4048 10.8234 16.8471V18.8236H8.94107V20.706H10.8234V22.5883H12.7058V20.706H14.5881V18.8236H12.7058V16.8471C15.1152 16.4048 16.9411 14.3059 16.9411 11.7647ZM8.47048 11.7647C8.47048 9.94827 9.94813 8.47062 11.7646 8.47062C13.5811 8.47062 15.0587 9.94827 15.0587 11.7647C15.0587 13.5812 13.5811 15.0589 11.7646 15.0589C9.94813 15.0589 8.47048 13.5812 8.47048 11.7647Z" fill="#757575"/>
</g>
<g clip-path="url(#clip1_15641:8)">
<path d="M11.7646 8.47058C13.5811 8.47058 15.0587 9.94823 15.0587 11.7647C15.0587 13.5812 13.5811 15.0588 11.7646 15.0588C9.94813 15.0588 8.47048 13.5812 8.47048 11.7647C8.47048 9.94823 9.94813 8.47058 11.7646 8.47058ZM11.7646 6.58822C8.90342 6.58822 6.58813 8.90352 6.58813 11.7647C6.58813 14.6259 8.90342 16.9412 11.7646 16.9412C14.6258 16.9412 16.9411 14.6259 16.9411 11.7647C16.9411 10.6729 16.6022 9.66588 16.0281 8.82823L19.7646 5.10116V7.5294H21.6469V1.88232H15.9999V3.76468H18.4281L14.6916 7.50117C13.8634 6.92705 12.8564 6.58822 11.7646 6.58822Z" fill="#757575"/>
</g>
<defs>
<clipPath id="clip0_15641:8">
<rect width="21.3333" height="18.5807" fill="white" transform="translate(0 5.41931)"/>
</clipPath>
<clipPath id="clip1_15641:8">
<rect width="21.3333" height="18.5807" fill="white" transform="translate(2.66663)"/>
</clipPath>
</defs>
</svg>
